<svg width="21" height="21" viewBox="0 0 21 21" fill="none" xmlns="http://www.w3.org/2000/svg">
<path fill-rule="evenodd" clip-rule="evenodd" d="M18.8385 2.19756C15.5131 -1.12787 6.57965 1.32933 4.82229 1.8555C4.04239 2.08843 3.60149 2.90784 3.83546 3.6867C4.06839 4.46244 4.88676 4.90646 5.66561 4.67249C8.59803 3.79692 12.9239 3.08358 15.3404 3.61802L1.16192 17.7965C0.586872 18.3716 0.586872 19.3012 1.16192 19.8763C1.73592 20.4503 2.6666 20.4513 3.24164 19.8763L17.4181 5.69982C17.9515 8.1175 17.2403 12.4413 16.3647 15.3716C16.1318 16.1515 16.5748 16.9688 17.3515 17.2028C17.8881 17.3629 18.4444 17.2017 18.8136 16.8326C18.98 16.6662 19.11 16.4572 19.1817 16.2149C19.7068 14.4586 22.1619 5.53136 18.8417 2.20068L18.8385 2.19756Z" fill="#E2E2E2"/>
</svg>
