<svg width="24" height="24" viewBox="0 0 24 24" fill="none" xmlns="http://www.w3.org/2000/svg">
<path fill-rule="evenodd" clip-rule="evenodd" d="M21.6463 2.39968C17.8228 -1.4238 7.55139 1.40141 5.53082 2.00639C4.63412 2.27421 4.12718 3.21634 4.39619 4.11185C4.66401 5.00377 5.60495 5.5143 6.50045 5.24528C9.87206 4.23858 14.8458 3.4184 17.6243 4.03288L1.32223 20.335C0.661061 20.9961 0.661061 22.065 1.32223 22.7262C1.9822 23.3861 3.05227 23.3873 3.71344 22.7262L20.0131 6.42648C20.6265 9.20626 19.8087 14.1776 18.802 17.5468C18.5342 18.4435 19.0435 19.3833 19.9366 19.6523C20.5535 19.8364 21.1932 19.6511 21.6176 19.2266C21.8089 19.0353 21.9584 18.795 22.0409 18.5164C22.6446 16.4971 25.4675 6.23279 21.6499 2.40327L21.6463 2.39968Z" fill="#7D5DFE"/>
</svg>
