<svg width="126" height="127" viewBox="0 0 126 127" fill="none" xmlns="http://www.w3.org/2000/svg">
<g id="Group">
<path id="Vector" d="M31.383 9.13183C32.0167 8.77995 32.58 8.56881 33.1434 8.49844C33.7067 8.42806 34.1996 8.49844 34.6925 8.77995C35.1855 8.99108 35.5375 9.41334 35.8192 9.90598C36.1009 10.3986 36.2417 10.8913 36.2417 11.4543C36.2417 11.9469 36.1009 12.5099 35.7488 12.9322C35.4671 13.4248 34.9742 13.8471 34.3405 14.199L30.9605 16.2399L30.1155 14.8324L33.425 12.8618C33.8475 12.6507 34.0588 12.2988 34.1996 12.0173C34.3405 11.6654 34.27 11.3135 34.0588 11.032C33.8475 10.6801 33.5659 10.469 33.2138 10.3986C32.8617 10.3282 32.5096 10.469 32.0871 10.6801L28.9888 12.5803L29.2705 11.2431L33.5659 18.2809L31.8055 19.3365L27.158 11.6654L31.383 9.13183Z" fill="#555555"/>
<path id="Vector_2" d="M36.312 6.31673L38.1428 5.4722L41.8749 13.9175L40.0441 14.762L36.312 6.31673Z" fill="#555555"/>
<path id="Vector_3" d="M48.8463 7.93538C48.9167 8.63915 48.9167 9.34292 48.7054 9.97632C48.5646 10.6097 48.2829 11.1024 47.8604 11.5246C47.4379 11.9469 46.945 12.2988 46.3113 12.4395C45.6775 12.6507 45.0438 12.6507 44.4804 12.5099C43.9171 12.3691 43.4242 12.0876 43.0017 11.6654C42.5792 11.2431 42.2271 10.6801 42.0159 9.97632C41.8046 9.27255 41.7342 8.63915 41.875 8.07613C42.0159 7.51312 42.2271 6.9501 42.6496 6.52784C43.0721 6.10557 43.565 5.75369 44.1988 5.61293C44.8325 5.4018 45.3959 5.4018 45.9592 5.54255C46.5225 5.68331 47.0859 5.96482 47.5788 6.38708C48.0717 6.73897 48.4942 7.23161 48.8463 7.93538ZM43.9875 9.4133C44.1284 9.76519 44.2692 10.1171 44.5509 10.3282C44.8325 10.5393 45.1142 10.7505 45.3959 10.8208C45.7479 10.8912 46.0296 10.8912 46.4521 10.7505C46.8042 10.6097 47.1563 10.469 47.3675 10.1875C47.6492 9.90594 47.8604 9.62443 48.0013 9.27255C48.1421 8.92066 48.2125 8.4984 48.2829 8.07613C48.0013 7.72425 47.7196 7.44274 47.3675 7.23161C47.0154 7.02048 46.6634 6.87972 46.3113 6.80934C45.9592 6.73897 45.6071 6.73897 45.255 6.87972C44.9029 7.02048 44.6213 7.16123 44.41 7.44274C44.1988 7.72425 44.0579 8.00576 43.9875 8.35764C43.9171 8.70953 43.8467 8.99104 43.9875 9.4133ZM49.3392 11.3135L48.2829 8.99104L48.3534 8.00576L47.79 7.23161L47.2971 4.7684L49.2688 4.13501L49.9025 7.51312L51.2404 10.6801L49.3392 11.3135Z" fill="#555555"/>
<path id="Vector_4" d="M54.9021 9.76517L51.0996 3.78311L53.2825 3.5016L56.8034 9.48366L54.9021 9.76517ZM54.7613 12.3691C54.3388 12.4395 53.9163 12.4395 53.5642 12.3691C53.2121 12.2987 52.86 12.158 52.5079 12.0172L52.2967 10.6097C52.6488 10.7505 53.0009 10.8912 53.2825 10.9616C53.5642 11.032 53.9163 11.032 54.2684 10.9616C54.6204 10.8912 54.9021 10.8208 55.1134 10.6097C55.3246 10.3986 55.5359 10.1171 55.6767 9.76517L57.7188 3.00896L59.8313 2.72745L57.3667 10.1874C57.2259 10.6801 57.0146 11.032 56.7329 11.3838C56.4513 11.6654 56.1696 11.9469 55.8175 12.0876C55.5359 12.2284 55.1838 12.2987 54.7613 12.3691Z" fill="#555555"/>
<path id="Vector_5" d="M66.5209 4.62766L69.9713 4.97954C70.3938 5.04992 70.8163 4.97954 71.098 4.76841C71.3796 4.55728 71.5205 4.27577 71.5909 3.92388C71.6613 3.572 71.5205 3.22011 71.3092 3.00898C71.098 2.79785 70.7459 2.65709 70.253 2.58672L66.5209 2.23483L67.5771 1.31993L66.6617 9.69481L64.6196 9.48368L65.535 0.545776L70.605 1.03842C71.2388 1.10879 71.8021 1.24955 72.295 1.60143C72.788 1.88294 73.14 2.23483 73.3513 2.65709C73.5625 3.07936 73.7034 3.572 73.633 4.13501C73.5625 4.69803 73.4217 5.1203 73.0696 5.54256C72.7175 5.96482 72.3655 6.17595 71.8021 6.38709C71.3092 6.59822 70.6755 6.59822 70.0417 6.52784L66.38 6.17595L66.5209 4.62766ZM67.9996 5.61294L70.3234 5.82407L73.2809 10.3282L70.8867 10.1171L67.9996 5.61294Z" fill="#555555"/>
<path id="Vector_6" d="M77.7172 11.8061C76.9426 11.595 76.3089 11.2431 75.7456 10.8209C75.1822 10.3282 74.8301 9.83558 74.6189 9.20219C74.4076 8.56879 74.4076 7.9354 74.6189 7.23163C74.8301 6.52785 75.1118 5.96484 75.6047 5.54257C76.0976 5.12031 76.661 4.8388 77.2947 4.69805C77.9285 4.55729 78.6326 4.62767 79.4072 4.8388C80.1818 5.04993 80.7451 5.40182 81.238 5.89446C81.731 6.3871 82.0126 6.95012 82.083 7.65389C82.2239 8.35766 82.1535 9.13181 81.9422 9.90596L75.9568 8.21691L76.3089 6.95012L81.238 8.35766L80.393 8.63917C80.4635 8.21691 80.4635 7.86502 80.393 7.58351C80.3226 7.302 80.1818 7.02049 79.9001 6.80936C79.6889 6.59823 79.4072 6.45748 78.9847 6.31672C78.6326 6.17597 78.2805 6.17597 77.9989 6.24634C77.6468 6.31672 77.3651 6.45748 77.1539 6.73899C76.9426 6.95012 76.7314 7.302 76.661 7.65389C76.5201 8.07615 76.5201 8.49842 76.661 8.92068C76.8018 9.34294 77.013 9.62445 77.3651 9.90596C77.7172 10.1875 78.1397 10.3986 78.703 10.5394C79.196 10.6801 79.6889 10.7505 80.2522 10.7505C80.8155 10.7505 81.3085 10.6801 81.8014 10.5394L81.4493 11.8061C80.9564 12.0173 80.393 12.0877 79.7593 12.0877C78.9847 12.0877 78.351 11.9469 77.7172 11.8061Z" fill="#555555"/>
<path id="Vector_7" d="M85.7446 14.8323C85.0405 14.4805 84.4067 14.0582 83.9842 13.4952C83.5617 12.9322 83.2801 12.3691 83.1392 11.7357C82.9984 11.1023 83.1392 10.469 83.4209 9.76518C83.7026 9.13179 84.1251 8.63915 84.6884 8.28726C85.2517 7.93537 85.8151 7.79462 86.5192 7.72424C87.2234 7.72424 87.8571 7.865 88.5613 8.21688C89.2655 8.56877 89.8288 8.99103 90.1809 9.55405C90.533 10.1171 90.7442 10.7505 90.7442 11.4542C90.7442 12.158 90.6034 12.8618 90.2513 13.6359L84.618 11.032L85.1813 9.83556L89.8288 12.0173L88.9134 12.158C89.0542 11.8061 89.1246 11.4542 89.0542 11.1023C88.9838 10.7505 88.9134 10.469 88.7021 10.2578C88.4909 9.97631 88.2796 9.76518 87.9276 9.62443C87.5755 9.48367 87.2234 9.4133 86.8713 9.4133C86.5192 9.4133 86.2376 9.55405 85.9559 9.76518C85.6742 9.97631 85.463 10.2578 85.3221 10.6097C85.1109 11.032 85.0405 11.4542 85.1109 11.8061C85.1813 12.158 85.3221 12.5803 85.6038 12.8618C85.8855 13.2137 86.308 13.4952 86.8009 13.7063C87.2938 13.9174 87.7867 14.0582 88.2796 14.1286C88.843 14.1989 89.3359 14.1989 89.8288 14.1286L89.2655 15.325C88.7021 15.3954 88.1388 15.4657 87.5051 15.325C86.8713 15.1842 86.3784 15.1139 85.7446 14.8323Z" fill="#555555"/>
<path id="Vector_8" d="M94.969 9.06143L96.659 10.1171L91.8707 17.9993L90.1807 16.9437L94.969 9.06143Z" fill="#555555"/>
<path id="Vector_9" d="M117.643 32.3563C117.995 32.9897 118.206 33.5527 118.277 34.1157C118.347 34.6787 118.206 35.1714 117.995 35.664C117.784 36.1566 117.361 36.5085 116.869 36.79C116.376 37.0715 115.812 37.2123 115.319 37.2123C114.826 37.2123 114.263 37.0716 113.841 36.7197C113.348 36.3678 112.925 35.9455 112.573 35.3121L110.531 31.934L111.939 31.0895L113.911 34.3972C114.122 34.8195 114.404 35.0306 114.756 35.1714C115.108 35.3121 115.46 35.2417 115.742 35.0306C116.094 34.8195 116.305 34.538 116.376 34.1861C116.446 33.8342 116.376 33.4823 116.094 33.06L114.193 29.8931L115.531 30.1746L108.419 34.3972L107.362 32.6378L115.108 28.0633L117.643 32.3563Z" fill="#555555"/>
<path id="Vector_10" d="M120.46 37.2827L121.234 39.1125L112.784 42.7721L112.01 40.9423L120.46 37.2827Z" fill="#555555"/>
<path id="Vector_11" d="M118.7 49.8098C117.995 49.8802 117.291 49.8098 116.728 49.6691C116.094 49.5283 115.601 49.1765 115.179 48.8246C114.756 48.4727 114.475 47.9097 114.263 47.2763C114.052 46.6429 114.052 46.0095 114.193 45.4465C114.334 44.8834 114.615 44.3908 115.038 43.9685C115.46 43.5463 116.024 43.2648 116.728 43.0536C117.432 42.8425 118.066 42.8425 118.629 42.9129C119.192 43.0536 119.756 43.2648 120.178 43.687C120.601 44.1093 120.953 44.6019 121.094 45.2353C121.305 45.8687 121.305 46.4317 121.164 46.9948C121.023 47.5578 120.742 48.1208 120.319 48.6134C119.897 49.1061 119.404 49.458 118.7 49.8098ZM115.32 50.2321L117.643 49.2468L118.629 49.3172L119.404 48.7542L121.868 48.3319L122.432 50.3025L119.052 50.8655L115.883 52.2027L115.32 50.2321ZM117.291 44.9538C116.939 45.0946 116.587 45.2353 116.376 45.5168C116.165 45.728 115.953 46.0095 115.883 46.3614C115.812 46.7132 115.812 46.9948 115.883 47.417C116.024 47.7689 116.165 48.1208 116.446 48.3319C116.728 48.6134 117.01 48.8246 117.362 48.9653C117.714 49.1061 118.136 49.2468 118.559 49.2468C118.911 48.9653 119.192 48.6838 119.404 48.4023C119.615 48.0504 119.756 47.6985 119.826 47.3466C119.897 46.9948 119.897 46.6429 119.756 46.291C119.615 45.9391 119.474 45.6576 119.192 45.4465C118.911 45.2353 118.629 45.0946 118.347 45.0242C118.066 44.8131 117.643 44.8131 117.291 44.9538Z" fill="#555555"/>
<path id="Vector_12" d="M114.193 55.7215C114.123 55.2993 114.123 54.877 114.193 54.5251C114.263 54.1732 114.404 53.8213 114.545 53.4695L115.953 53.3287C115.813 53.6806 115.672 54.0325 115.601 54.314C115.531 54.5955 115.531 54.9474 115.601 55.2993C115.672 55.6512 115.742 55.9327 115.953 56.1438C116.094 56.3549 116.446 56.5661 116.798 56.7068L123.558 58.8181L123.77 60.9294L116.305 58.3959C115.813 58.2551 115.46 58.044 115.179 57.7625C114.897 57.481 114.615 57.1995 114.475 56.8476C114.334 56.4253 114.263 56.0734 114.193 55.7215ZM116.798 55.8623L122.784 52.1323L123.065 54.314L117.01 57.7625L116.798 55.8623Z" fill="#555555"/>
<path id="Vector_13" d="M120.812 69.0228L120.53 71.3453L115.953 74.2307L116.235 71.8379L120.812 69.0228ZM121.798 67.5449L121.375 70.9934C121.305 71.4156 121.375 71.8379 121.586 72.1194C121.798 72.4009 122.009 72.5417 122.431 72.6121C122.784 72.6824 123.136 72.5417 123.347 72.3306C123.558 72.1194 123.699 71.7675 123.769 71.2749L124.192 67.5449L125.107 68.6006L116.728 67.6153L116.939 65.5743L125.882 66.5596L125.319 71.6268C125.248 72.2602 125.037 72.8232 124.755 73.3158C124.474 73.8085 124.121 74.1604 123.629 74.3715C123.206 74.5826 122.713 74.653 122.15 74.653C121.586 74.5826 121.164 74.3715 120.741 74.09C120.389 73.7381 120.108 73.3158 119.896 72.8232C119.685 72.3306 119.685 71.6972 119.756 71.0638L120.178 67.4041L121.798 67.5449Z" fill="#555555"/>
<path id="Vector_14" d="M114.545 78.5941C114.756 77.82 115.108 77.1866 115.601 76.6236C116.094 76.1309 116.587 75.7086 117.221 75.5679C117.855 75.3568 118.488 75.3568 119.193 75.5679C119.897 75.779 120.46 76.1309 120.812 76.5532C121.235 77.0458 121.516 77.6088 121.587 78.2422C121.728 78.8756 121.657 79.5794 121.446 80.3535C121.235 81.1277 120.883 81.6907 120.39 82.1834C119.897 82.6056 119.333 82.8871 118.629 83.0279C117.925 83.1686 117.15 83.0983 116.376 82.8871L118.136 76.9051L119.404 77.2569L117.995 82.1834L117.784 81.2684C118.207 81.3388 118.559 81.3388 118.84 81.2684C119.122 81.1981 119.404 81.0573 119.615 80.7758C119.826 80.5647 119.967 80.2832 120.108 79.9313C120.249 79.509 120.249 79.1571 120.178 78.8756C120.108 78.5941 119.967 78.2422 119.685 78.0311C119.474 77.82 119.122 77.6088 118.77 77.5385C118.348 77.3977 117.925 77.3977 117.503 77.4681C117.15 77.6088 116.798 77.82 116.517 78.1015C116.235 78.4534 116.024 78.8756 115.883 79.4386C115.742 79.9313 115.672 80.4239 115.672 80.9869C115.672 81.55 115.742 82.0426 115.883 82.5352L114.615 82.1834C114.404 81.6907 114.334 81.1277 114.334 80.4943C114.263 79.8609 114.334 79.2275 114.545 78.5941Z" fill="#555555"/>
<path id="Vector_15" d="M111.447 86.6874C111.799 85.9837 112.221 85.3503 112.785 84.928C113.348 84.5057 113.911 84.2242 114.545 84.0835C115.179 83.9427 115.812 84.0835 116.517 84.4354C117.15 84.7169 117.643 85.1391 117.995 85.7022C118.347 86.2652 118.488 86.8282 118.488 87.532C118.488 88.2357 118.347 88.8691 117.995 89.5729C117.643 90.2767 117.221 90.8397 116.657 91.1916C116.094 91.5435 115.46 91.7546 114.756 91.7546C114.052 91.7546 113.348 91.6138 112.573 91.1916L115.249 85.5614L116.446 86.1244L114.263 90.7693L114.193 89.8544C114.545 89.9952 114.897 90.0655 115.249 89.9952C115.601 89.9952 115.883 89.8544 116.094 89.6433C116.376 89.4321 116.587 89.221 116.728 88.8691C116.869 88.5172 117.01 88.1654 116.939 87.8135C116.939 87.4616 116.798 87.1801 116.587 86.8986C116.376 86.6171 116.094 86.4059 115.742 86.2652C115.32 86.054 114.897 85.9837 114.545 86.054C114.122 86.1244 113.77 86.2652 113.489 86.5467C113.137 86.8282 112.855 87.2505 112.644 87.7431C112.432 88.2357 112.292 88.7284 112.151 89.221C112.08 89.784 112.08 90.2767 112.151 90.7693L110.954 90.2063C110.883 89.6433 110.883 89.0803 110.954 88.4469C110.954 87.8839 111.165 87.2505 111.447 86.6874Z" fill="#555555"/>
<path id="Vector_16" d="M117.08 95.9069L116.024 97.596L108.208 92.74L109.264 91.0509L117.08 95.9069Z" fill="#555555"/>
<path id="Vector_17" d="M96.8702 116.387C96.3068 116.809 95.6731 117.02 95.1098 117.09C94.5464 117.161 93.9831 117.09 93.5606 116.879C93.1381 116.668 92.7156 116.316 92.3635 115.824C92.0114 115.331 91.8706 114.838 91.8706 114.275C91.8706 113.783 92.0114 113.22 92.2931 112.727C92.5748 112.234 92.9973 111.812 93.631 111.39L96.9406 109.208L97.856 110.616L94.6168 112.727C94.1943 113.009 93.9831 113.29 93.9127 113.642C93.8423 113.994 93.9127 114.346 94.1239 114.627C94.3352 114.979 94.6168 115.19 94.9689 115.19C95.321 115.261 95.6731 115.12 96.0956 114.838L99.1235 112.797L98.9123 114.135L94.3352 107.238L96.0252 106.112L100.954 113.572L96.8702 116.387Z" fill="#555555"/>
<path id="Vector_18" d="M92.0821 119.413L90.3217 120.328L86.2375 112.094L87.998 111.179L92.0821 119.413Z" fill="#555555"/>
<path id="Vector_19" d="M78.8436 114.979L79.9703 117.231V118.216L80.604 118.991L81.1674 121.454L79.1957 122.158L78.4211 118.779L76.9424 115.683L78.8436 114.979ZM79.4774 118.357C79.3365 117.653 79.3365 116.95 79.4774 116.316C79.6182 115.683 79.8999 115.19 80.252 114.698C80.6745 114.275 81.1674 113.923 81.7307 113.712C82.3645 113.501 82.9278 113.431 83.5615 113.572C84.1249 113.712 84.6882 113.923 85.1107 114.346C85.5332 114.768 85.8853 115.331 86.167 115.964C86.3782 116.668 86.4486 117.302 86.3782 117.865C86.3078 118.498 86.0261 118.991 85.674 119.413C85.322 119.835 84.7586 120.187 84.1953 120.398C83.5615 120.609 82.9982 120.68 82.4349 120.539C81.8715 120.398 81.3082 120.187 80.8153 119.765C80.252 119.483 79.8295 118.991 79.4774 118.357ZM84.2657 116.668C84.1249 116.316 83.9136 115.964 83.7024 115.753C83.4207 115.542 83.139 115.401 82.8574 115.331C82.5053 115.261 82.1532 115.261 81.8011 115.401C81.449 115.542 81.1674 115.753 80.8857 115.964C80.604 116.246 80.4632 116.527 80.3224 116.95C80.1815 117.302 80.1111 117.724 80.1111 118.146C80.3928 118.498 80.6745 118.709 81.0265 118.92C81.3786 119.131 81.7307 119.272 82.0828 119.272C82.4349 119.343 82.787 119.272 83.139 119.131C83.4911 118.991 83.7728 118.85 83.984 118.568C84.1953 118.287 84.3361 118.005 84.4065 117.653C84.477 117.302 84.4065 117.02 84.2657 116.668Z" fill="#555555"/>
<path id="Vector_20" d="M73.3512 114.135C73.7737 114.064 74.1962 114.064 74.5483 114.135C74.9004 114.205 75.2525 114.275 75.6045 114.487L75.8158 115.894C75.4637 115.753 75.1116 115.613 74.83 115.613C74.5483 115.542 74.1962 115.542 73.8441 115.613C73.492 115.683 73.2808 115.753 72.9991 115.964C72.7879 116.176 72.5766 116.457 72.5062 116.809L70.7458 123.636L68.6333 123.987L70.8162 116.387C70.957 115.894 71.1683 115.542 71.3795 115.19C71.5908 114.838 71.9429 114.627 72.2245 114.487C72.647 114.275 72.9991 114.205 73.3512 114.135ZM73.3512 116.739L77.365 122.51L75.182 122.861L71.45 117.02L73.3512 116.739Z" fill="#555555"/>
<path id="Vector_21" d="M61.9436 122.298L58.4932 122.087C58.0707 122.087 57.6482 122.158 57.3665 122.369C57.0849 122.58 56.944 122.861 56.944 123.213C56.944 123.565 57.0145 123.917 57.2961 124.128C57.5778 124.339 57.9299 124.48 58.3524 124.48L62.0845 124.691L61.0986 125.677L61.5915 117.302L63.6336 117.442L63.0703 126.38L58.0003 126.028C57.3665 125.958 56.8032 125.817 56.3103 125.536C55.8174 125.254 55.4653 124.902 55.1836 124.48C54.902 124.058 54.8315 123.565 54.8315 123.002C54.8315 122.439 55.0428 121.947 55.3245 121.595C55.6061 121.172 56.0286 120.891 56.5215 120.68C57.0145 120.469 57.5778 120.398 58.282 120.469L61.9436 120.68V122.298ZM60.3945 121.454L58.0707 121.313L54.9724 116.879L57.3665 117.02L60.3945 121.454Z" fill="#555555"/>
<path id="Vector_22" d="M50.466 115.613C51.2406 115.824 51.9447 116.105 52.4376 116.527C53.001 116.95 53.3531 117.513 53.6347 118.076C53.846 118.709 53.9164 119.343 53.7051 120.046C53.5643 120.75 53.2122 121.313 52.7897 121.735C52.2968 122.158 51.8039 122.439 51.0997 122.65C50.3956 122.861 49.7618 122.791 48.9872 122.65C48.2126 122.439 47.5789 122.158 47.1564 121.665C46.6635 121.172 46.3818 120.609 46.241 119.906C46.1001 119.202 46.1001 118.498 46.3114 117.653L52.3672 119.061L52.0856 120.328L47.086 119.131L47.931 118.85C47.8606 119.272 47.8606 119.624 48.0014 119.906C48.0718 120.187 48.2831 120.469 48.4943 120.68C48.7056 120.891 49.0576 121.032 49.4097 121.102C49.8322 121.172 50.1843 121.172 50.466 121.102C50.7476 121.032 51.0997 120.82 51.311 120.609C51.5222 120.328 51.6631 120.046 51.8039 119.694C51.9447 119.202 51.8743 118.85 51.8039 118.428C51.6631 118.076 51.4518 117.724 51.0997 117.442C50.7476 117.161 50.3251 117.02 49.7618 116.879C49.2689 116.739 48.776 116.739 48.2126 116.739C47.6493 116.739 47.1564 116.879 46.7339 117.02L47.0156 115.683C47.5085 115.472 48.0718 115.331 48.7056 115.331C49.1985 115.401 49.8322 115.472 50.466 115.613Z" fill="#555555"/>
<path id="Vector_23" d="M42.2974 112.938C43.0719 113.22 43.6353 113.642 44.1282 114.205C44.6211 114.698 44.9028 115.331 45.0436 115.964C45.1844 116.598 45.114 117.231 44.8324 117.935C44.5507 118.568 44.1986 119.131 43.6353 119.483C43.1424 119.835 42.5086 120.046 41.8044 120.117C41.1003 120.187 40.4665 120.046 39.6919 119.765C38.9878 119.483 38.4244 119.061 38.0019 118.498C37.5794 117.935 37.3682 117.372 37.3682 116.668C37.2978 115.964 37.4386 115.19 37.7907 114.416L43.5649 116.809L43.0719 118.005L38.2836 116.035L39.199 115.894C39.0582 116.246 39.0582 116.598 39.0582 116.95C39.1286 117.302 39.199 117.583 39.4103 117.794C39.6215 118.076 39.9032 118.216 40.2553 118.357C40.6074 118.498 40.9594 118.568 41.3115 118.568C41.6636 118.498 41.9453 118.428 42.2269 118.217C42.5086 118.005 42.7199 117.724 42.8607 117.372C43.0719 116.95 43.0719 116.527 43.0015 116.105C42.9311 115.683 42.7199 115.331 42.4382 115.05C42.1565 114.768 41.734 114.487 41.1707 114.275C40.6778 114.064 40.1849 113.923 39.6919 113.923C39.1286 113.853 38.6357 113.853 38.1428 113.994L38.6357 112.727C39.199 112.586 39.7624 112.586 40.3961 112.657C41.1003 112.516 41.6636 112.727 42.2974 112.938Z" fill="#555555"/>
<path id="Vector_24" d="M33.3547 119.061L31.5942 118.076L36.1009 110.053L37.8613 111.038L33.3547 119.061Z" fill="#555555"/>
<path id="Vector_25" d="M11.8774 99.9184C11.4549 99.3554 11.1732 98.7924 11.1028 98.2294C10.962 97.6663 11.0324 97.1737 11.2436 96.6811C11.4549 96.1884 11.807 95.7662 12.2295 95.4143C12.7224 95.0624 13.2153 94.8512 13.7082 94.8512C14.2011 94.7809 14.7645 94.9216 15.2574 95.2031C15.7503 95.4846 16.2432 95.9069 16.6657 96.4699L18.9895 99.6369L17.6516 100.622L15.3278 97.5256C15.0461 97.1737 14.7645 96.8922 14.4124 96.8218C14.0603 96.7514 13.7082 96.8218 13.4266 97.0329C13.0745 97.2441 12.9336 97.596 12.9336 97.9478C12.9336 98.2997 13.0041 98.6516 13.2857 99.0739L15.4686 102.03L14.1307 101.889L20.7499 96.9626L21.947 98.5812L14.6941 103.93L11.8774 99.9184Z" fill="#555555"/>
<path id="Vector_26" d="M8.56786 95.2736L7.58203 93.5142L15.6095 89.01L16.5954 90.7694L8.56786 95.2736Z" fill="#555555"/>
<path id="Vector_27" d="M12.3704 81.9018L10.1875 83.0982L9.20163 83.1686L8.49746 83.802L6.03288 84.5058L5.2583 82.6056L8.56788 81.6907L11.5958 80.0016L12.3704 81.9018ZM8.99038 82.676C9.69455 82.5352 10.3987 82.4648 11.0325 82.6056C11.6662 82.7464 12.2295 82.9575 12.652 83.3094C13.145 83.6613 13.497 84.1539 13.7083 84.7169C13.99 85.3503 14.0604 85.9133 13.99 86.5467C13.9195 87.1097 13.6379 87.6728 13.2858 88.095C12.8633 88.5877 12.3704 88.9396 11.7366 89.2211C11.1029 89.5026 10.4691 89.573 9.83538 89.573C9.20163 89.5026 8.70871 89.2914 8.2158 88.9396C7.72288 88.5877 7.3708 88.095 7.15955 87.4616C6.9483 86.8986 6.80747 86.2652 6.87788 85.7022C6.9483 85.1392 7.15955 84.5762 7.51163 84.0131C7.86371 83.5205 8.35663 83.0982 8.99038 82.676ZM10.962 87.3913C11.3141 87.2505 11.5958 87.0394 11.8775 86.7579C12.0887 86.4764 12.2295 86.1948 12.3 85.843C12.3704 85.4911 12.3 85.1392 12.1591 84.8577C12.0183 84.5058 11.807 84.2243 11.5254 83.9428C11.2437 83.7316 10.8916 83.5205 10.5395 83.3798C10.1875 83.239 9.76496 83.239 9.34246 83.239C9.0608 83.5205 8.77913 83.8724 8.56788 84.2243C8.35663 84.5762 8.28621 84.9281 8.2158 85.2799C8.2158 85.6318 8.2158 85.9837 8.35663 86.3356C8.49746 86.6875 8.70871 86.969 8.99038 87.1801C9.27205 87.3913 9.55371 87.532 9.9058 87.532C10.1875 87.6024 10.5395 87.532 10.962 87.3913Z" fill="#555555"/>
<path id="Vector_28" d="M12.9338 76.342C13.0043 76.7643 13.0747 77.1866 13.0042 77.5385C13.0042 77.8903 12.8634 78.3126 12.7226 78.6645L11.3143 78.946C11.4551 78.5941 11.5255 78.2422 11.5959 77.8903C11.5959 77.6088 11.5959 77.2569 11.5255 76.9051C11.4551 76.5532 11.3143 76.342 11.103 76.1309C10.8918 75.9198 10.6101 75.779 10.1876 75.7086L3.28676 74.3011L2.86426 72.2602L10.5397 74.0196C11.0326 74.1603 11.4551 74.3011 11.7368 74.5122C12.0888 74.7234 12.3001 75.0049 12.5113 75.3568C12.6522 75.6383 12.793 75.9902 12.9338 76.342ZM10.258 76.4828L4.69509 80.7758L4.20217 78.5941L9.8355 74.5122L10.258 76.4828Z" fill="#555555"/>
<path id="Vector_29" d="M4.13167 65.3632L4.20208 61.9147C4.20208 61.4924 4.13167 61.0702 3.92042 60.859C3.70917 60.5071 3.35708 60.3664 3.005 60.3664C2.65292 60.3664 2.37125 60.5071 2.16 60.7183C1.94875 60.9294 1.80792 61.3517 1.80792 61.7739L1.7375 65.5039L0.681253 64.589L9.06083 64.7298V66.7707L0.11792 66.7003L0.188337 61.5628C0.188337 60.9294 0.32917 60.3664 0.54042 59.8737C0.751669 59.3811 1.10375 59.0292 1.52625 58.7477C1.94875 58.4662 2.44167 58.3254 3.005 58.3254C3.56833 58.3254 4.06125 58.4662 4.41333 58.7477C4.83583 59.0292 5.1175 59.4515 5.39917 59.9441C5.68083 60.4368 5.75125 60.9998 5.75125 61.6332L5.68083 65.3632H4.13167ZM4.97667 63.8149L5.04708 61.4924L9.27208 58.1847L9.20166 60.5775L4.97667 63.8149Z" fill="#555555"/>
<path id="Vector_30" d="M10.2578 53.6102C10.117 54.3843 9.83534 55.0881 9.41284 55.6511C8.99034 56.2141 8.49742 56.6364 7.93409 56.9179C7.37076 57.1994 6.66659 57.2698 5.96242 57.129C5.25826 56.9883 4.69492 56.7068 4.20201 56.2845C3.70909 55.8623 3.42743 55.2992 3.21618 54.6658C3.00493 54.0324 3.00493 53.3287 3.14576 52.5545C3.28659 51.7804 3.56826 51.147 3.99076 50.6543C4.41326 50.1617 4.97659 49.8098 5.68076 49.5987C6.38492 49.3875 7.08909 49.3875 7.93409 49.5283L6.80742 55.6511L5.46951 55.44L6.45534 50.3025L6.80742 51.147C6.38492 51.0766 6.03284 51.147 5.75117 51.2877C5.46951 51.4285 5.18784 51.5692 4.97659 51.8508C4.76534 52.1323 4.62451 52.4138 4.55409 52.7657C4.48368 53.1879 4.48368 53.5398 4.62451 53.8213C4.76534 54.1732 4.90617 54.3843 5.18784 54.5955C5.46951 54.8066 5.75117 54.9474 6.17367 55.0177C6.66659 55.0881 7.01867 55.0881 7.44117 54.9474C7.79325 54.8066 8.14534 54.5251 8.35659 54.1732C8.56784 53.8213 8.77909 53.3287 8.8495 52.7657C8.91992 52.273 8.99034 51.71 8.91992 51.2174C8.8495 50.6543 8.70867 50.1617 8.56784 49.7394L9.90575 49.9506C10.117 50.4432 10.3283 51.0062 10.3987 51.6396C10.3987 52.273 10.3283 52.9064 10.2578 53.6102Z" fill="#555555"/>
<path id="Vector_31" d="M12.5113 45.2353C12.2296 46.0095 11.8775 46.6429 11.3846 47.1355C10.8917 47.6281 10.3283 47.98 9.69459 48.1208C9.06084 48.2615 8.42709 48.2615 7.72293 47.98C7.01876 47.7689 6.52584 47.3466 6.10334 46.854C5.68084 46.3614 5.46959 45.728 5.39918 45.0946C5.32876 44.4612 5.39918 43.7574 5.68084 42.9832C5.96251 42.2091 6.31459 41.6461 6.87793 41.2238C7.44126 40.8016 8.00459 40.5904 8.70876 40.4497C9.41292 40.3793 10.1875 40.4497 10.9621 40.7312L8.92001 46.5725L7.58209 46.291L9.27209 41.4349L9.48334 42.3499C9.13126 42.2795 8.77917 42.2091 8.42709 42.2795C8.07501 42.3499 7.86376 42.4906 7.58209 42.7017C7.37084 42.9129 7.15959 43.1944 7.01876 43.5463C6.87793 43.8982 6.87793 44.3204 6.87793 44.6019C6.94834 44.9538 7.08918 45.2353 7.30043 45.5168C7.51168 45.7983 7.79334 45.9391 8.21584 46.0798C8.63834 46.2206 9.06084 46.291 9.48334 46.2206C9.83542 46.1502 10.1875 45.9391 10.5396 45.5872C10.8213 45.2353 11.1029 44.8131 11.2438 44.3204C11.3846 43.8278 11.5254 43.3351 11.5254 42.7721C11.5254 42.2091 11.5254 41.7165 11.3846 41.2238L12.6521 41.6461C12.7929 42.2091 12.8633 42.7721 12.8633 43.3351C12.8633 44.0389 12.7225 44.6723 12.5113 45.2353Z" fill="#555555"/>
<path id="Vector_32" d="M5.89209 36.6493L6.73709 34.8899L15.0462 38.9717L14.2012 40.6608L5.89209 36.6493Z" fill="#555555"/>
</g>
</svg>
