<svg width="121" height="121" viewBox="0 0 121 121" fill="none" xmlns="http://www.w3.org/2000/svg">
<path id="Icon" d="M60.4287 23.5585C60.7129 27.4581 61.0728 30.9438 61.5563 34.0587C62.8336 42.2872 64.9958 48.1017 69.0584 52.1637C73.1211 56.2258 78.9363 58.3877 87.1655 59.6654C90.2843 60.1496 93.7748 60.5101 97.6802 60.7948C93.7753 61.0791 90.2852 61.439 87.1669 61.9227C78.9385 63.1991 73.124 65.3593 69.0619 69.4203C64.9997 73.4813 62.8378 79.2952 61.5601 87.5245C61.0763 90.6405 60.716 94.1278 60.4315 98.0294C60.1473 94.1309 59.7875 90.646 59.3041 87.5319C58.0268 79.3033 55.8646 73.4889 51.8019 69.4268C47.7393 65.3648 41.924 63.2029 33.6949 61.9252C30.5796 61.4415 27.0934 61.0813 23.1934 60.7968C27.093 60.5126 30.5787 60.1527 33.6936 59.6692C41.9221 58.3919 47.7366 56.2297 51.7986 52.167C55.8607 48.1044 58.0226 42.2892 59.3003 34.06C59.784 30.9447 60.1442 27.4585 60.4287 23.5585Z" stroke="#555555" stroke-width="2"/>
</svg>
